Coordinates
version=1
nRows=9
nColumns=45
inDegrees=yes

Units are S.I. units (second, meters, Newtons, ...)
Angles are in degrees.

endheader
time	pelvis_tilt	pelvis_list	pelvis_rotation	pelvis_tx	pelvis_ty	pelvis_tz	hip_flexion_r	hip_adduction_r	hip_rotation_r	knee_angle_r	knee_adduction_r	knee_angle_r_beta	ankle_angle_r	subtalar_angle_r	mtp_angle_r	hip_flexion_l	hip_adduction_l	hip_rotation_l	knee_angle_l	knee_adduction_l	knee_angle_l_beta	ankle_angle_l	subtalar_angle_l	mtp_angle_l	lumbar_extension	lumbar_bending	lumbar_rotation	thoracic_extension	thoracic_bending	thoracic_rotation	arm_flex_r	arm_add_r	arm_rot_r	elbow_flex_r	pro_sup_r	wrist_flex_r	wrist_dev_r	arm_flex_l	arm_add_l	arm_rot_l	elbow_flex_l	pro_sup_l	wrist_flex_l	wrist_dev_l
     29.90564286	     -3.30345118	     -5.11288207	     -2.88067896	      0.70264946	      0.92377804	      0.49870062	    -12.58012451	      4.55858223	     -2.28579177	     14.94324029	      5.06300000	      0.26080874	     14.90731537	      7.14277890	    -13.81460330	     33.15421983	     -7.15886152	     -8.62159512	     10.60165870	      5.06300000	      0.18503385	     13.03882942	     -0.55182723	     -1.38193331	     -5.42661528	      7.27419216	      5.81979915	      0.00000000	      0.00000000	      0.00000000	     23.36486420	    -18.83854652	      3.23841466	     53.30271298	     89.99911678	      0.00000000	      0.00000000	     -8.61132478	     -7.27768875	     13.57730559	     19.38392908	     89.99945425	      0.00000000	      0.00000000
     29.91628571	     -3.44796226	     -4.63176606	     -2.89153400	      0.70451912	      0.92163985	      0.49750144	    -12.89882577	      3.80069975	     -2.78123732	     15.95567503	      5.06300000	      0.27847906	     14.14425004	      7.18967292	    -16.93997981	     33.52062905	     -6.59187465	     -8.39106237	     12.19310314	      5.06300000	      0.21280980	     12.46694816	     -2.02217204	     -2.23790674	     -5.07457219	      6.71601442	      5.76883483	      0.00000000	      0.00000000	      0.00000000	     23.12036129	    -18.83053933	      2.98992976	     53.72654940	     89.99911678	      0.00000000	      0.00000000	     -9.02640452	     -7.47261854	     14.11919851	     19.30049268	     89.99945425	      0.00000000	      0.00000000
     29.92692857	     -3.56493873	     -4.10254091	     -3.10202910	      0.70688488	      0.91964120	      0.49688108	    -13.20435058	      3.00828518	     -2.82302908	     17.08777431	      5.06300000	      0.29823792	     13.78788226	      7.11189931	    -17.77239205	     33.86782431	     -6.16145188	     -8.48586718	     14.25429377	      5.06300000	      0.24878436	     11.92104232	     -3.19747351	     -2.37558355	     -4.71171147	      6.01500790	      5.89523943	      0.00000000	      0.00000000	      0.00000000	     22.82844435	    -18.82526794	      2.91242841	     53.92205362	     89.99911678	      0.00000000	      0.00000000	     -9.70182999	     -7.74246810	     14.11362985	     19.56611723	     89.99945425	      0.00000000	      0.00000000
     29.93757143	     -3.57765266	     -3.47860636	     -3.23917865	      0.70908188	      0.91773036	      0.49527383	    -13.19752769	      1.88368887	     -3.88754264	     18.93988320	      5.06300000	      0.33056332	     12.51919130	      7.62635222	    -22.94597110	     33.90828259	     -5.48413486	     -8.36840136	     15.99184665	      5.06300000	      0.27911038	     10.53777433	     -4.86022908	     -3.31377426	     -4.49786907	      5.36555114	      5.93321076	      0.00000000	      0.00000000	      0.00000000	     22.51977415	    -18.69877805	      2.63685525	     54.26529332	     89.99911678	      0.00000000	      0.00000000	    -10.05819886	     -7.89900266	     14.38177066	     19.74622550	     89.99945425	      0.00000000	      0.00000000
     29.94821429	     -3.59814827	     -2.76768957	     -3.36054856	      0.71227540	      0.91608605	      0.49428008	    -13.34128907	      0.83588358	     -4.31293003	     20.51848610	      5.06300000	      0.35811514	     11.26317238	      7.18211982	    -25.76370781	     33.86678723	     -4.77374674	     -8.37043140	     17.78935687	      5.06300000	      0.31048285	      9.08942148	     -6.35814462	     -3.88302297	     -4.11730112	      4.48075061	      5.99556854	      0.00000000	      0.00000000	      0.00000000	     21.84407674	    -18.61214317	      2.38186930	     54.50745482	     89.99911678	      0.00000000	      0.00000000	    -10.62444048	     -8.19828606	     14.59407021	     19.94203173	     89.99945425	      0.00000000	      0.00000000
     29.95885714	     -3.56059622	     -2.09474579	     -3.49330963	      0.71554051	      0.91470037	      0.49328580	    -13.34584528	     -0.19446482	     -4.72938574	     22.45039297	      5.06300000	      0.39183328	      9.97945418	      6.68199024	    -27.44235770	     33.72368749	     -4.12463288	     -8.49877860	     19.57392918	      5.06300000	      0.34162951	      7.62613935	     -7.59728175	     -4.12064613	     -3.80575837	      3.64448322	      6.05938215	      0.00000000	      0.00000000	      0.00000000	     21.13577702	    -18.49424063	      2.11183070	     54.72824179	     89.99911678	      0.00000000	      0.00000000	    -11.15427799	     -8.48616271	     14.74687167	     20.23620916	     89.99945425	      0.00000000	      0.00000000
     29.96950000	     -3.47260038	     -1.47353168	     -3.55644359	      0.71898519	      0.91359461	      0.49225522	    -13.26857791	     -1.14117165	     -5.07852054	     24.60179075	      5.06300000	      0.42938225	      8.46086823	      5.91400389	    -28.20819768	     33.56177476	     -3.52026944	     -8.63526666	     21.45742747	      5.06300000	      0.37450276	      6.32933908	     -8.54120884	     -3.98728383	     -3.58818404	      2.85054837	      6.07150266	      0.00000000	      0.00000000	      0.00000000	     20.30237864	    -18.37610088	      1.94297372	     54.81424074	     89.99911678	      0.00000000	      0.00000000	    -11.70981959	     -8.78559451	     14.77146047	     20.55256417	     89.99945425	      0.00000000	      0.00000000
     29.98014286	     -3.31044234	     -0.39954712	     -3.90250516	      0.72261038	      0.91309724	      0.49096385	    -12.78643459	     -2.77016355	     -5.45051686	     27.53609975	      5.06300000	      0.48059560	      6.72648627	      5.16630426	    -28.65596844	     32.88728323	     -2.51201870	     -9.10716082	     22.56611846	      5.06300000	      0.39385307	      4.92509885	     -9.77879261	     -3.90330354	     -3.37481144	      1.60468316	      6.48051929	      0.00000000	      0.00000000	      0.00000000	     19.17876006	    -18.14959799	      0.91279072	     55.15856083	     89.99911678	      0.00000000	      0.00000000	    -12.03727317	     -9.11301780	     15.29732238	     20.79457251	     89.99945425	      0.00000000	      0.00000000
     29.99078571	     -3.05849517	      0.18633348	     -3.83400147	      0.72565153	      0.91267727	      0.48956687	    -12.33755765	     -3.68487218	     -5.76852106	     30.47405548	      5.06300000	      0.53187260	      4.29483005	      3.35404252	    -28.84083445	     32.43923025	     -1.81937061	     -9.10542053	     24.16909064	      5.06300000	      0.42183021	      4.20430791	    -10.56424777	     -3.23698279	     -3.39173902	      0.86438389	      6.24110554	      0.00000000	      0.00000000	      0.00000000	     18.42161543	    -17.92527552	      0.69079575	     55.21250503	     89.99911678	      0.00000000	      0.00000000	    -12.36155845	     -9.36529426	     15.34615874	     21.02328259	     89.99945425	      0.00000000	      0.00000000
